<?xml version="1.0" standalone="no"?>
<!DOCTYPE svg PUBLIC "-//W3C//DTD SVG 20010904//EN"
 "http://www.w3.org/TR/2001/REC-SVG-20010904/DTD/svg10.dtd">
<svg version="1.0" xmlns="http://www.w3.org/2000/svg"
 width="1053.000000pt" height="516.000000pt" viewBox="0 0 1053.000000 516.000000"
 preserveAspectRatio="xMidYMid meet">
<metadata>
Created by potrace 1.15, written by Peter Selinger 2001-2017
</metadata>
<g transform="translate(0.000000,516.000000) scale(0.100000,-0.100000)"
fill="#000000" stroke="none">
<path d="M9405 4920 c-145 -23 -250 -76 -350 -175 -79 -79 -134 -177 -161
-285 -26 -103 -16 -260 25 -380 74 -218 242 -499 465 -775 l64 -80 -221 -11
c-981 -51 -1915 -230 -2872 -549 -1091 -365 -2203 -933 -3207 -1636 -101 -71
-130 -87 -147 -81 -20 7 -14 17 74 136 512 688 846 1331 951 1831 25 115 28
152 28 320 0 159 -3 207 -22 291 -32 148 -66 244 -133 379 -206 417 -581 701
-1059 802 -65 14 -130 18 -275 18 -145 0 -210 -4 -275 -18 -477 -101 -854
-386 -1060 -802 -68 -138 -99 -226 -131 -375 -20 -89 -23 -134 -23 -295 0
-168 3 -205 28 -320 109 -515 473 -1207 1003 -1901 l24 -32 -68 -27 c-138 -55
-274 -158 -327 -249 -203 -347 194 -706 783 -706 457 0 821 215 839 496 6 96
-20 167 -103 280 -15 21 -13 24 97 105 855 632 1893 1200 2878 1576 984 376
2082 625 3045 693 205 14 225 18 225 35 0 8 37 61 83 118 225 276 390 551 469
777 30 89 33 104 33 230 0 116 -3 144 -24 203 -32 93 -110 207 -185 269 -127
107 -318 163 -471 138z m173 -409 c204 -105 135 -411 -93 -411 -230 0 -296
305 -90 413 43 23 137 22 183 -2z m-6903 -756 c405 -85 561 -579 280 -883
-106 -115 -236 -172 -390 -172 -154 0 -284 57 -390 172 -280 302 -126 796 275
882 85 19 140 19 225 1z m-311 -3067 c69 -84 142 -173 164 -197 l38 -44 125
149 c68 82 138 167 155 189 l31 39 69 -29 c140 -59 241 -163 251 -258 11 -91
-63 -193 -190 -266 -163 -93 -433 -132 -667 -96 -122 18 -187 38 -280 85 -147
74 -230 180 -216 277 9 67 58 136 134 190 62 45 209 112 244 113 9 0 70 -66
142 -152z"/>
</g>
</svg>
