<?xml version="1.0" standalone="no"?>
<!DOCTYPE svg PUBLIC "-//W3C//DTD SVG 20010904//EN"
 "http://www.w3.org/TR/2001/REC-SVG-20010904/DTD/svg10.dtd">
<svg version="1.0" xmlns="http://www.w3.org/2000/svg"
 width="1280.000000pt" height="818.000000pt" viewBox="0 0 1280.000000 818.000000"
 preserveAspectRatio="xMidYMid meet">
<metadata>
Created by potrace 1.15, written by Peter Selinger 2001-2017
</metadata>
<g transform="translate(0.000000,818.000000) scale(0.100000,-0.100000)"
fill="#000000" stroke="none">
<path d="M3669 8071 l-93 -100 -61 5 c-48 4 -66 1 -90 -14 -39 -24 -604 -792
-616 -836 -7 -25 -5 -46 6 -79 l15 -44 -61 -109 c-151 -268 -269 -561 -339
-843 -66 -264 -114 -551 -127 -757 l-6 -103 -29 -6 c-16 -4 -32 -5 -34 -2 -3
3 8 24 25 47 43 59 28 70 -21 16 -60 -69 -89 -85 -209 -117 -166 -43 -236 -88
-254 -162 -8 -31 -57 -75 -63 -57 -10 30 49 394 83 508 11 36 20 50 29 46 9
-3 26 12 45 40 20 29 42 48 59 52 107 22 171 84 265 254 36 65 96 121 166 156
17 8 31 20 31 25 0 12 -30 4 -73 -18 -16 -8 -31 -13 -33 -10 -2 2 3 23 11 47
17 48 18 60 7 60 -4 0 -13 -14 -21 -30 -33 -77 -87 -131 -182 -183 -159 -88
-212 -141 -225 -225 -4 -24 -15 -53 -25 -65 -16 -19 -16 -13 5 48 90 270 276
622 539 1023 77 117 137 216 133 219 -3 3 -8 4 -9 2 -2 -2 -36 -50 -76 -106
-40 -57 -75 -103 -77 -103 -3 0 27 47 66 105 39 58 66 105 60 105 -23 0 -281
-375 -415 -605 -49 -82 -123 -222 -165 -310 -217 -448 -307 -795 -328 -1260
l-7 -160 -32 109 -31 109 21 17 21 17 -38 46 c-34 41 -38 53 -46 131 -5 46
-14 94 -20 105 -17 32 -49 281 -59 462 l-9 164 25 52 c19 37 33 53 52 56 45
10 118 63 151 112 17 25 52 94 76 153 36 85 56 118 97 160 29 30 65 60 80 68
15 8 25 19 21 25 -3 6 -28 -3 -61 -21 -55 -31 -56 -31 -49 -8 15 54 19 111 8
104 -7 -4 -12 -15 -12 -24 0 -9 -17 -48 -38 -87 -32 -59 -51 -79 -123 -133
-111 -83 -177 -148 -200 -197 -23 -49 -23 -38 -4 122 17 146 29 214 61 353
l24 105 103 96 c56 54 99 100 95 104 -4 5 -46 -27 -93 -70 -47 -42 -85 -72
-85 -67 0 5 16 53 35 106 40 112 39 106 21 106 -26 0 -145 -357 -191 -575 -17
-76 -44 -148 -30 -80 28 144 15 196 -89 363 -56 90 -65 113 -76 180 -6 43 -10
85 -8 94 1 9 -1 17 -7 18 -5 0 -12 -28 -15 -62 l-5 -61 -38 46 c-45 55 -83 67
-44 15 14 -18 38 -60 55 -93 28 -56 30 -69 34 -205 6 -180 20 -223 89 -283 33
-28 56 -59 70 -94 20 -50 20 -58 9 -155 -13 -110 -14 -489 -1 -600 4 -38 4
-68 1 -68 -13 0 -129 127 -145 159 -25 51 -55 141 -55 168 0 12 -5 23 -11 23
-9 0 -10 -22 -6 -75 l7 -74 -53 39 c-80 61 -88 48 -15 -27 88 -92 94 -103 128
-235 37 -146 51 -185 84 -242 27 -47 74 -89 114 -101 12 -3 22 -14 22 -22 0
-54 161 -620 225 -789 14 -37 25 -69 25 -72 0 -4 -27 35 -60 86 -137 212 -262
338 -405 408 -50 24 -96 44 -102 44 -7 0 -9 -15 -6 -42 24 -222 133 -405 410
-689 94 -96 125 -122 181 -147 100 -46 134 -88 165 -197 60 -211 161 -644 153
-652 -1 -1 -18 19 -38 45 -139 186 -454 484 -718 679 -112 83 -159 113 -242
155 -109 55 -114 55 -236 -16 -191 -111 -313 -202 -343 -258 -8 -14 -3 -19 28
-27 21 -6 61 -11 88 -11 59 0 250 23 353 43 l73 14 24 -43 c14 -24 37 -65 52
-91 43 -78 209 -329 275 -417 151 -198 330 -387 419 -439 24 -14 85 -35 134
-47 142 -33 152 -37 187 -87 35 -51 45 -116 68 -449 l13 -170 -38 -167 c-21
-92 -41 -167 -45 -167 -4 0 -10 18 -14 40 -11 71 -77 301 -118 415 -47 131
-164 371 -213 438 -70 95 -72 55 -6 -193 122 -465 168 -723 192 -1090 10 -161
4 -235 -22 -264 -4 -4 -8 59 -8 140 -3 454 -102 965 -268 1388 -94 241 -247
496 -278 465 -7 -8 11 -90 89 -389 61 -237 127 -545 140 -650 5 -45 5 -45 -6
-10 -118 372 -245 657 -341 766 -70 81 -66 41 37 -346 81 -303 136 -583 166
-845 19 -168 30 -320 29 -400 l0 -80 -25 84 c-79 268 -221 501 -396 650 -91
78 -149 112 -258 152 -71 25 -95 40 -150 93 -112 106 -184 152 -315 198 -164
59 -168 39 -13 -75 236 -175 401 -397 515 -690 35 -93 87 -282 97 -357 5 -40
3 -37 -17 25 -108 326 -300 605 -525 762 -100 70 -322 157 -322 126 0 -13 43
-51 115 -104 198 -144 335 -310 446 -544 91 -191 142 -383 174 -650 8 -72 15
-136 15 -142 0 -10 -28 -13 -105 -13 l-105 0 0 -125 0 -125 6130 0 6130 0 0
125 0 125 -164 0 -164 0 -6 68 c-19 215 -40 401 -57 505 -10 65 -19 133 -19
151 0 18 20 129 44 247 48 233 56 291 41 299 -13 6 -64 -89 -110 -207 l-37
-92 -47 137 c-48 141 -97 243 -118 250 -18 5 -17 -82 2 -208 41 -272 65 -507
55 -540 -17 -57 -58 -268 -71 -365 l-13 -90 -17 125 c-10 69 -30 181 -44 250
-22 103 -29 165 -35 355 -15 390 -37 596 -69 628 -16 16 -27 -3 -41 -68 -16
-74 -40 -244 -40 -288 0 -34 -2 -38 -20 -32 -19 6 -20 2 -20 -57 l0 -63 -21
42 c-11 23 -27 47 -35 54 -22 18 -18 -59 13 -277 25 -173 27 -216 28 -506 l0
-318 -42 0 -43 0 0 258 c-1 716 -48 1162 -105 992 -10 -29 -12 -31 -19 -14
-30 76 -77 -247 -107 -726 -6 -102 -12 -186 -13 -188 -4 -3 -72 259 -92 354
l-17 80 68 215 c129 407 143 454 150 503 6 39 5 48 -6 44 -24 -7 -105 -136
-182 -290 -88 -174 -87 -175 -87 76 0 186 9 275 50 477 17 80 30 156 30 169
l0 23 -26 -24 c-63 -58 -154 -296 -191 -494 -21 -116 -24 -464 -4 -621 l13
-111 -33 -101 c-18 -56 -34 -100 -36 -98 -2 1 -15 70 -30 152 -24 133 -27 174
-27 384 0 228 1 239 32 384 34 161 38 191 21 181 -7 -5 -8 5 -3 32 3 21 7 42
8 47 0 5 -4 11 -11 13 -17 6 -80 -96 -120 -194 -57 -143 -99 -344 -106 -513
l-2 -55 -42 115 c-23 63 -47 138 -54 165 -6 28 -17 55 -24 60 -6 6 -31 55 -55
110 -106 242 -279 545 -311 545 -15 0 -10 -61 12 -140 11 -41 56 -186 99 -321
44 -135 101 -324 128 -420 43 -150 49 -182 43 -229 l-6 -55 -19 55 c-29 88
-130 326 -184 437 -38 79 -51 118 -56 170 -9 92 -33 173 -51 173 -7 0 -19 -16
-25 -36 l-12 -35 -34 38 -33 38 -1 -31 c0 -16 10 -66 22 -110 26 -95 25 -73 5
-319 -10 -110 -21 -252 -25 -315 -7 -112 -8 -109 -15 130 -16 542 -51 877 -92
883 -17 3 -42 -93 -56 -210 -10 -88 -17 -113 -30 -116 -9 -2 -19 -20 -23 -38
-39 -184 -68 -558 -82 -1034 l-7 -240 -19 70 c-90 343 -113 497 -112 770 0
220 1 236 32 383 40 188 40 193 8 163 -30 -28 -87 -142 -116 -231 -50 -155
-63 -254 -64 -469 -1 -191 -2 -200 -14 -145 -35 161 -129 403 -161 412 -11 4
-13 -8 -8 -64 4 -58 46 -396 61 -499 6 -38 -1 -21 -44 103 -18 51 -50 121 -70
155 -26 43 -41 84 -49 132 -59 347 -202 744 -344 962 -42 64 -64 82 -72 60 -3
-6 13 -82 35 -167 67 -256 127 -512 140 -593 l13 -76 -36 -83 c-37 -89 -120
-331 -132 -388 -5 -19 -10 -30 -12 -24 -2 6 19 120 47 254 51 249 62 342 37
321 -20 -16 -94 -177 -137 -298 -22 -59 -39 -103 -39 -97 -1 7 26 144 59 307
57 278 70 377 52 377 -13 0 -68 -100 -107 -195 -165 -401 -269 -840 -301
-1268 l-7 -97 -90 0 -89 0 7 58 c31 251 152 727 305 1197 106 325 136 451 105
449 -27 -2 -159 -225 -260 -440 l-61 -132 -17 85 c-9 47 -24 97 -34 112 l-18
26 -7 -45 c-3 -25 -7 -69 -7 -99 -3 -175 -62 -418 -213 -873 -95 -283 -116
-338 -131 -338 -11 0 -17 5 -14 13 12 33 119 375 146 467 46 163 88 334 111
460 28 147 38 418 20 527 -12 77 -45 173 -60 173 -9 0 -20 -77 -20 -145 0
-110 -41 -355 -89 -524 l-18 -65 0 140 c0 76 -5 168 -12 204 -14 73 -45 150
-60 150 -5 0 -12 -35 -15 -77 -24 -323 -66 -523 -184 -878 -30 -88 -30 -89
-31 -45 -11 421 -93 861 -225 1202 -88 230 -220 458 -247 431 -9 -9 8 -88 85
-388 129 -501 177 -934 156 -1405 -5 -113 -10 -213 -10 -222 0 -14 -8 -18 -35
-18 -32 0 -34 2 -30 28 25 141 33 637 15 873 -44 570 -187 1113 -408 1550 -96
190 -199 339 -235 339 -19 0 1 -103 63 -320 33 -118 79 -286 101 -373 41 -165
112 -508 105 -514 -2 -2 -18 38 -35 89 -67 191 -222 482 -272 508 -17 10 -19
7 -19 -22 0 -31 27 -145 85 -358 96 -356 151 -671 180 -1035 8 -99 14 -202 14
-230 -1 -57 5 -68 -51 105 -63 196 -184 395 -322 530 -43 42 -66 72 -66 87 0
24 -14 31 -25 13 -4 -6 -25 3 -52 21 -43 30 -200 99 -224 99 -7 0 -44 31 -84
69 -91 86 -177 145 -267 182 -92 38 -168 60 -180 53 -15 -9 10 -32 127 -119
155 -116 149 -106 134 -207 -7 -45 -14 -85 -15 -87 -2 -2 -22 12 -46 31 -61
49 -105 74 -179 102 l-64 24 3 41 c4 49 -8 52 -38 11 -12 -17 -30 -30 -41 -30
-15 0 -19 -5 -14 -18 3 -12 -26 -80 -83 -191 l-89 -172 -6 53 c-20 167 -3 411
48 658 18 90 31 168 28 173 -25 40 -146 -205 -191 -388 -48 -192 -61 -472 -33
-727 l14 -127 -28 -88 c-15 -48 -31 -92 -35 -96 -16 -18 -59 273 -66 448 -7
162 5 302 41 476 28 136 31 174 13 163 -7 -5 -9 -2 -5 9 13 35 19 87 9 87 -16
0 -61 -58 -91 -119 -81 -160 -126 -353 -144 -606 l-2 -40 -13 42 c-26 88 -156
404 -226 547 -108 224 -218 406 -247 406 -27 0 -7 -82 121 -485 145 -455 214
-713 279 -1047 38 -195 39 -236 1 -68 -94 418 -285 901 -469 1187 -53 82 -77
97 -69 42 3 -16 3 -28 2 -26 -1 1 -25 37 -53 80 -28 42 -55 77 -61 77 -18 0
-11 -73 16 -165 14 -50 51 -171 84 -270 114 -353 165 -532 231 -815 34 -143
88 -422 89 -452 0 -7 -180 -12 -180 -5 0 1 -7 74 -15 162 -27 306 -96 636
-195 933 -84 252 -180 462 -211 462 -16 0 -3 -82 62 -400 32 -156 57 -285 55
-287 -1 -2 -24 54 -49 124 -52 141 -117 275 -137 281 -18 6 -8 -67 51 -351 27
-131 49 -243 48 -250 0 -7 -13 31 -29 83 -38 129 -80 248 -123 350 l-35 85 23
120 c25 130 62 282 125 523 56 214 53 244 -15 155 -45 -59 -162 -296 -208
-423 -53 -143 -103 -322 -137 -491 -17 -87 -38 -163 -49 -178 -24 -34 -78
-157 -108 -246 l-23 -70 5 50 c2 28 16 138 30 245 14 107 28 216 31 241 8 65
-10 70 -45 13 -29 -45 -107 -272 -131 -381 -7 -29 -13 -53 -13 -53 -1 0 -2
100 -2 223 0 241 -10 308 -64 472 -41 122 -118 254 -134 228 -3 -4 8 -69 23
-143 59 -277 62 -519 10 -820 -21 -118 -86 -394 -100 -419 -4 -7 -8 69 -9 170
-4 525 -62 1142 -106 1126 -9 -4 -17 28 -29 118 -19 142 -35 200 -56 200 -8 0
-19 -18 -26 -43 -28 -96 -62 -572 -65 -902 -1 -181 -13 -158 -23 47 -8 142
-28 361 -46 493 -19 139 -37 187 -61 163 -38 -38 -71 -429 -84 -1003 -3 -135
-8 -327 -11 -427 l-6 -183 -87 0 -86 0 3 92 c3 69 13 123 38 208 50 173 100
384 119 505 25 156 17 406 -14 488 -12 31 -26 55 -31 52 -4 -3 -11 -51 -14
-107 -10 -139 -40 -317 -80 -468 l-33 -124 -6 48 c-11 77 -8 124 12 231 27
138 44 344 36 440 -12 142 -53 291 -75 269 -5 -5 -13 -76 -19 -158 -12 -163
-19 -205 -31 -186 -22 36 -45 -30 -58 -161 l-8 -84 -7 88 c-8 101 -20 163 -43
225 -31 84 -41 51 -59 -201 -4 -54 -9 -96 -11 -94 -3 3 -9 88 -15 190 -9 168
-8 196 10 303 60 351 106 753 126 1109 l6 110 55 82 c52 79 57 84 137 123 46
22 88 40 93 40 6 0 29 16 52 36 133 114 380 616 423 859 15 89 10 101 -35 78
-146 -75 -491 -486 -602 -718 -26 -53 -34 -82 -34 -125 0 -50 -4 -60 -40 -104
l-40 -48 0 213 c0 263 -13 526 -41 853 -21 242 -22 253 -5 365 83 558 268
1087 524 1496 103 165 105 167 150 169 21 1 47 9 59 17 18 12 448 467 547 578
37 42 38 46 33 97 l-6 54 96 90 c53 49 93 93 90 97 -4 3 -17 -3 -30 -13 -12
-11 -56 -50 -98 -87 l-76 -67 -38 16 c-64 26 -92 14 -188 -84 -188 -192 -479
-509 -494 -536 -18 -35 -12 -90 14 -118 12 -13 14 -23 8 -32 -6 -7 -53 -78
-106 -157 -116 -174 -200 -322 -274 -487 -58 -128 -168 -446 -205 -592 -12
-47 -24 -87 -26 -90 -5 -5 1 104 17 320 43 553 195 1114 417 1532 l46 87 56
-6 c41 -4 65 -1 87 10 21 11 118 135 306 389 151 205 284 389 296 408 26 44
27 105 2 146 l-19 32 75 83 c42 46 87 96 101 112 20 21 22 27 10 27 -9 0 -58
-45 -109 -99z m-1383 -3286 c-1 -348 -2 -371 -16 -330 l-15 46 -37 -44 c-142
-170 -214 -429 -244 -874 -4 -57 -10 -103 -13 -103 -4 0 -20 39 -35 88 -37
114 -137 392 -169 467 -36 86 -48 203 -54 505 l-5 265 41 39 c37 37 44 39 91
37 82 -3 148 33 250 139 60 63 101 96 140 114 30 14 58 26 61 26 3 0 5 -169 5
-375z m-1120 -357 c28 -29 65 -73 82 -98 49 -73 93 -152 88 -157 -9 -9 -176
192 -206 248 -17 33 -27 59 -23 59 5 0 32 -24 59 -52z m1071 -90 c-4 -69 -23
-155 -63 -291 -13 -44 -13 -2 1 115 13 111 49 258 63 258 3 0 2 -37 -1 -82z
m78 -550 c11 -386 -21 -947 -79 -1378 -15 -108 -14 -110 -51 110 -29 176 -82
422 -126 588 -29 109 -29 115 -14 164 8 29 19 54 23 57 5 3 23 26 40 50 51 70
162 441 179 594 3 31 9 57 13 57 4 0 11 -109 15 -242z m3583 -2207 c76 -52
216 -192 201 -202 -8 -4 -10 -27 -7 -64 5 -61 2 -61 -34 4 -9 17 -22 31 -28
31 -16 0 -12 -52 17 -251 23 -162 27 -224 30 -517 l5 -332 -46 0 -46 0 0 318
c0 664 -45 1095 -98 942 -8 -21 -16 -28 -26 -24 -11 4 -19 -2 -25 -18 -23 -60
-64 -414 -76 -658 -3 -63 -8 -144 -12 -180 l-6 -65 -33 125 c-18 69 -42 168
-54 220 l-20 95 53 170 c116 370 141 445 144 445 2 0 30 -17 61 -39z m415 -43
c86 -118 94 -135 109 -240 14 -98 11 -119 -10 -74 -6 13 -40 60 -75 104 l-65
80 -7 83 c-3 46 -9 92 -11 102 -9 31 5 18 59 -55z m292 -80 c45 -41 46 -44 34
-70 -12 -27 -29 -38 -29 -20 0 5 -25 46 -55 91 -48 71 -51 80 -26 62 16 -12
50 -40 76 -63z m-5761 1 c189 -176 325 -427 394 -724 28 -119 52 -307 52 -406
l0 -79 -89 0 -89 0 -6 132 c-9 165 -30 341 -57 467 -45 208 -145 452 -248 606
-28 41 -47 75 -42 75 5 0 43 -32 85 -71z m5930 -202 c165 -248 252 -533 272
-890 l7 -117 -95 0 -95 0 -6 172 c-9 269 -60 527 -146 738 -29 71 -30 78 -20
132 6 32 15 55 20 52 4 -2 33 -42 63 -87z m-2644 -507 c28 -168 28 -168 45
-305 8 -66 15 -137 15 -157 l0 -38 -79 0 -78 0 -7 53 c-22 178 -15 747 11 872
6 32 48 -160 93 -425z m5119 145 c5 -122 5 -292 1 -405 -5 -107 -9 -205 -10
-217 0 -22 -4 -23 -86 -23 l-86 0 6 48 c3 26 13 105 21 177 19 152 52 349 94
563 17 84 32 156 32 160 5 31 20 -131 28 -303z m-6822 263 c-3 -8 -6 -5 -6 6
-1 11 2 17 5 13 3 -3 4 -12 1 -19z m8129 -285 c49 -197 99 -453 110 -558 l7
-66 -89 3 -89 3 -6 325 c-4 179 -9 386 -12 460 l-5 135 19 -60 c11 -33 40
-142 65 -242z m-4212 125 c25 -59 55 -141 67 -183 20 -68 21 -84 11 -133 -6
-32 -16 -93 -22 -137 -7 -44 -15 -93 -20 -110 -8 -29 -8 -29 -9 10 -2 51 -43
303 -70 422 -21 94 -29 266 -12 248 5 -6 30 -58 55 -117z m2663 -90 c-3 -8 -6
-5 -6 6 -1 11 2 17 5 13 3 -3 4 -12 1 -19z m-6898 -95 c-1 -49 -2 -54 -9 -29
-8 26 -3 86 6 86 2 0 4 -26 3 -57z m1684 -375 c6 -186 5 -188 -15 -188 -21 0
-21 3 -14 138 6 132 16 246 21 240 1 -2 5 -87 8 -190z m5716 -135 c1 -50 0
-53 -25 -53 -19 0 -24 4 -20 18 2 9 8 94 12 187 l8 170 12 -135 c7 -74 13
-159 13 -187z m-3918 106 l46 -160 -56 3 -55 3 -16 55 c-15 51 -14 61 4 162
11 59 22 105 25 102 3 -2 26 -77 52 -165z m5754 8 c25 -86 45 -159 45 -162 0
-3 -24 -5 -53 -5 l-54 0 -16 59 c-16 57 -16 64 5 165 11 59 23 105 25 103 2
-2 24 -74 48 -160z m-8950 -84 c-22 -66 -31 -83 -47 -83 -10 0 -17 3 -15 8 3
4 22 61 43 127 37 116 39 119 42 75 2 -29 -6 -73 -23 -127z"/>
</g>
</svg>
