<?xml version="1.0" standalone="no"?>
<!DOCTYPE svg PUBLIC "-//W3C//DTD SVG 20010904//EN"
 "http://www.w3.org/TR/2001/REC-SVG-20010904/DTD/svg10.dtd">
<svg version="1.0" xmlns="http://www.w3.org/2000/svg"
 width="280.000000pt" height="245.000000pt" viewBox="0 0 280.000000 245.000000"
 preserveAspectRatio="xMidYMid meet">
<metadata>
Created by potrace 1.15, written by Peter Selinger 2001-2017
</metadata>
<g transform="translate(0.000000,245.000000) scale(0.100000,-0.100000)"
fill="#000000" stroke="none">
<path d="M804 1927 c-325 -210 -593 -386 -594 -392 -3 -9 1175 -775 1191 -775
9 0 1170 748 1187 765 11 10 -96 83 -586 399 -329 212 -601 386 -603 385 -2 0
-270 -172 -595 -382z"/>
<path d="M277 1278 c-64 -41 -76 -53 -65 -63 17 -16 1162 -753 1181 -761 11
-4 1158 725 1195 760 11 10 -2 23 -67 65 l-80 53 -520 -336 -520 -336 -513
331 c-282 183 -517 333 -523 334 -5 2 -45 -19 -88 -47z"/>
<path d="M277 968 c-64 -41 -76 -53 -65 -63 17 -16 1162 -753 1181 -761 11 -4
1158 725 1195 760 11 10 -2 23 -67 65 l-80 53 -520 -336 -520 -336 -513 331
c-282 183 -517 333 -523 334 -5 2 -45 -19 -88 -47z"/>
</g>
</svg>
