<?xml version="1.0" standalone="no"?>
<!DOCTYPE svg PUBLIC "-//W3C//DTD SVG 20010904//EN"
 "http://www.w3.org/TR/2001/REC-SVG-20010904/DTD/svg10.dtd">
<svg version="1.0" xmlns="http://www.w3.org/2000/svg"
 width="1280.000000pt" height="1116.000000pt" viewBox="0 0 1280.000000 1116.000000"
 preserveAspectRatio="xMidYMid meet">
<metadata>
Created by potrace 1.15, written by Peter Selinger 2001-2017
</metadata>
<g transform="translate(0.000000,1116.000000) scale(0.100000,-0.100000)"
fill="#000000" stroke="none">
<path d="M5445 11153 c-120 -8 -321 -34 -444 -58 -744 -145 -1243 -515 -1471
-1089 -59 -150 -74 -234 -74 -411 -1 -185 11 -243 74 -372 57 -116 155 -199
260 -219 l35 -7 -23 19 c-28 23 -54 121 -45 168 22 121 151 210 399 277 113
30 125 31 244 26 455 -22 856 -291 1165 -782 70 -111 188 -352 248 -505 107
-274 183 -583 234 -950 25 -176 25 -700 0 -920 -110 -983 -466 -1887 -1089
-2762 -640 -901 -1581 -1762 -2673 -2445 -725 -453 -1349 -762 -2225 -1102
l-55 -21 1465 5 c4858 18 6793 25 8670 30 1158 3 2205 8 2327 11 l222 6 15 68
c23 101 53 296 73 470 21 193 24 791 5 1005 -80 878 -243 1639 -551 2565 -891
2677 -2589 5186 -4256 6288 -666 441 -1252 646 -2005 702 -125 9 -407 11 -525
3z"/>
</g>
</svg>
